<svg xmlns="http://www.w3.org/2000/svg" width="116" height="20" viewBox="0 0 116 20">
    <path fill="#000" fill-rule="evenodd" d="M110.538 12.723L115 18.047 112.524 20l-5.419-6.618v6.179h-3.285V1.344l3.285-.586v11.843l4.953-6.69 2.452 1.709-3.972 5.103zM0 1.295V19.56h2.06V.83L0 1.295zm2.967 11.6l5.712 7.007 1.618-1.27-4.903-5.836 4.241-5.274-1.618-1.197-5.05 6.57zm16.106.658H16.77c-2.33 0-3.384.782-3.384 2.442 0 1.343.736 2.1 2.06 2.1 1.2 0 2.77-.634 3.628-1.465v-3.077zm0-1.44v-1.05c0-2.027-.907-2.833-2.623-2.833-1.201 0-2.55.366-3.604.855l-.613-1.441c1.3-.733 2.868-1.172 4.266-1.172 3.065 0 4.56 1.465 4.56 4.688v8.4h-1.52l-.245-1.416c-1.275 1.026-2.918 1.612-4.217 1.612-2.28 0-3.653-1.368-3.653-3.663 0-2.613 1.765-3.98 5.075-3.98h2.574zm13.68-5.788l1.618 1.197-4.242 5.274 4.904 5.837-1.618 1.27-5.713-7.009 5.05-6.569zm-5.958 13.236h-2.06V1.295l2.06-.464v18.73zm17.014-6.008h-2.305c-2.33 0-3.383.782-3.383 2.442 0 1.343.735 2.1 2.06 2.1 1.2 0 2.77-.634 3.628-1.465v-3.077zm0-1.44v-1.05c0-2.027-.907-2.833-2.624-2.833-1.2 0-2.55.366-3.604.855l-.613-1.441c1.3-.733 2.869-1.172 4.266-1.172 3.065 0 4.56 1.465 4.56 4.688v8.4h-1.52l-.245-1.416c-1.274 1.026-2.917 1.612-4.217 1.612-2.28 0-3.653-1.368-3.653-3.663 0-2.613 1.765-3.98 5.075-3.98h2.575zm10.664 6.007c2.28 0 3.604-1.71 3.604-4.957 0-3.248-1.324-5.006-3.604-5.006-2.28 0-3.604 1.758-3.604 5.006 0 3.247 1.324 4.957 3.604 4.957zm0 1.685c-3.58 0-5.737-2.369-5.737-6.642 0-4.298 2.182-6.691 5.737-6.691 3.58 0 5.737 2.393 5.737 6.69 0 4.274-2.133 6.643-5.737 6.643zm12.085-2.418a7.49 7.49 0 0 0 1.177.074c2.059 0 3.53-1.295 3.53-4.591 0-2.491-.613-3.932-2.942-3.932-.736 0-1.373.171-1.765.293v8.156zM63.272 1.344l3.286-.586v6.373a5.625 5.625 0 0 1 2.942-.83c3.481 0 5.1 2.369 5.1 6.496 0 4.468-2.452 7.13-6.522 7.13-1.888 0-3.898-.366-4.806-.757V1.344zm20.324 12.478h-1.765c-1.765 0-2.697.708-2.697 2.002 0 .928.54 1.539 1.618 1.539 1.128 0 2.256-.513 2.844-1.026v-2.515zm0-2.1v-.44c0-1.416-.441-2.222-2.378-2.222a7.264 7.264 0 0 0-3.482.855l-.907-2.246C78.08 6.814 79.92 6.3 81.61 6.3c3.31 0 5.05 1.612 5.05 4.957v8.303h-2.304l-.368-1.1c-1.324 1.026-2.746 1.441-3.898 1.441-2.525 0-3.923-1.489-3.923-4.053 0-2.71 1.864-4.127 5.37-4.127h2.06zm6.006-5.03h2.329l.49 1.294C93.573 6.96 95.167 6.3 96.54 6.3c2.893 0 4.34 1.783 4.34 5.006v8.253h-3.286v-8.35c0-1.441-.54-2.052-2.28-2.052-.687 0-1.667.195-2.427.488v9.914h-3.285V6.692z"/>
</svg>
